# xmcd
#
# Track frame offsets:
#	150
#	9622
#	21058
#	29557
#	40428
#	49479
#	57970
#	68519
#	79659
#	87603
#	97830
#	106486
#	116954
#	128626
#
# Disc length: 1850 seconds
#
# Revision: 1
# Processed by: cddbd v1.5.2PL0 Copyright (c) Steve Scherf et al.
# Submitted via: audiograbber 1.83.01
#
DISCID=bb07380e
DTITLE=Johnny Cash - Hymns By Johnny Cash
DYEAR=2011
DGENRE=Country
TTITLE0=It Was Jesus
TTITLE1=I Saw A Man
TTITLE2=Are All The Children In
TTITLE3=The Old Account
TTITLE4=Lead Me Gently Home, Father
TTITLE5=Swing Low, Sweet Chariot
TTITLE6=Snow In His Hair
TTITLE7=Lead Me Father
TTITLE8=I Call Him
TTITLE9=These Things Shall Pass
TTITLE10=He'll Be A Friend
TTITLE11=God Will
TTITLE12=The Little Drummer Boy
TTITLE13=I Was There When It Happened
EXTD=
EXTT0=
EXTT1=
EXTT2=
EXTT3=
EXTT4=
EXTT5=
EXTT6=
EXTT7=
EXTT8=
EXTT9=
EXTT10=
EXTT11=
EXTT12=
EXTT13=
PLAYORDER=
